<svg width="116" height="35" viewBox="0 0 116 35" fill="none" xmlns="http://www.w3.org/2000/svg">
<path d="M43.5136 16.5221H42.0735C46.4973 16.5221 50.1164 12.9721 50.1164 8.63245V8.03516C50.1164 3.69563 46.4974 0.145508 42.0735 0.145508H21.5717C21.3711 0.146344 21.179 0.224858 21.0372 0.363958C20.8954 0.503059 20.8153 0.691485 20.8145 0.888211V33.7348C20.8153 33.9316 20.8954 34.12 21.0372 34.2591C21.179 34.3982 21.3711 34.4767 21.5717 34.4775H43.5136C47.9374 34.4775 51.5565 30.9275 51.5565 26.5879V24.409C51.5539 20.0722 47.9349 16.5221 43.5136 16.5221ZM31.1128 7.456C31.1134 7.32325 31.1675 7.19612 31.2632 7.10226C31.3589 7.00839 31.4885 6.95538 31.6238 6.95477H37.4799C38.1646 6.95657 38.8208 7.22419 39.305 7.69914C39.7891 8.17409 40.062 8.81774 40.0638 9.48942V11.2839C40.062 11.9556 39.7891 12.5993 39.305 13.0742C38.8208 13.5492 38.1646 13.8168 37.4799 13.8186H31.6238C31.4885 13.818 31.3589 13.765 31.2632 13.6711C31.1675 13.5772 31.1134 13.4501 31.1128 13.3173V7.456ZM41.2896 24.6454C41.2896 26.0399 39.9659 27.1801 38.3509 27.1801H31.6926C31.3749 27.1801 31.1129 26.9541 31.1129 26.6788V20.8149C31.1129 20.5396 31.375 20.3136 31.6926 20.3136H38.3509C39.9685 20.3136 41.2896 21.4537 41.2896 22.8483V24.6454Z" fill="#00EC00"/>
<path d="M8.87421 10.1315L0.52913 8.61236C0.52913 8.61236 1.94814 2.41341 8.47397 0.790266C15.4579 -0.947143 20.7581 1.07597 23.522 3.95102C26.2861 6.82328 25.6214 10.5655 24.0196 12.625C22.4177 14.6844 20.7026 15.4972 20.7026 15.4972C20.7026 15.4972 25.8095 16.5594 26.7335 21.2521C27.6575 25.9449 25.4654 31.1986 20.7423 33.1775C16.0193 35.1564 9.90901 34.6474 5.81876 33.1775C1.72851 31.7076 0 25.659 0 25.659L8.75773 24.4722C8.75773 24.4722 8.46915 28.7104 12.848 29.2195C17.2268 29.7285 18.0343 24.9812 17.9181 23.5685C17.802 22.1557 16.9389 19.6678 14.172 18.99C11.4051 18.3122 10.5423 19.3302 10.5423 19.3302L11.1195 13.0559C11.1195 13.0559 12.79 13.8479 14.7491 12.5468C16.7083 11.2457 17.8599 6.83862 14.4606 5.9894C11.0583 5.14537 9.27951 6.92422 8.87421 10.1315Z" fill="#efefef"/>
<path d="M60.9811 0.96881C60.7064 0.680507 60.3798 0.444539 60.0176 0.272823C59.6269 0.0893316 59.1985 -0.00395194 58.7654 0.00012831H54.6484V9.19344H56.4592V6.14199H58.8419C59.2711 6.14614 59.6956 6.05468 60.0835 5.87449C60.4405 5.70768 60.7607 5.47386 61.026 5.18625C61.2899 4.90092 61.4973 4.56991 61.6376 4.21013C61.7826 3.84332 61.8562 3.45312 61.8547 3.05971C61.8532 2.67408 61.7731 2.29263 61.6191 1.9378C61.4654 1.58092 61.2495 1.25302 60.9811 0.96881ZM56.454 1.64403H58.7255C58.8962 1.64312 59.0652 1.67857 59.2206 1.74792C59.3795 1.81711 59.5221 1.91794 59.6392 2.04401C59.7642 2.1789 59.8637 2.33457 59.933 2.50371C60.0055 2.67941 60.0424 2.8673 60.0415 3.05685C60.0429 3.24803 60.0097 3.43794 59.9436 3.6178C59.8838 3.78676 59.7942 3.94409 59.6789 4.08262C59.5711 4.20936 59.4377 4.31281 59.2871 4.38645C59.1358 4.45994 58.9687 4.49646 58.8 4.4929H56.4544L56.454 1.64403Z" fill="#00EC00"/>
<path d="M66.2411 6.142H68.1237L70.1966 9.19345H72.3066L70.0085 5.794C70.1206 5.74271 70.2294 5.6846 70.3341 5.62C70.6182 5.44153 70.8675 5.21461 71.0701 4.94998C71.2718 4.68429 71.4291 4.38878 71.5361 4.07457C71.6478 3.74729 71.7041 3.4043 71.7029 3.05918C71.7013 2.676 71.624 2.29676 71.4752 1.94245C71.1753 1.21001 70.6067 0.614267 69.8814 0.272591C69.4906 0.0891716 69.0623 -0.00402835 68.6291 0.000133497H64.4355V9.19345H66.2464V6.142H66.2411ZM69.5265 4.08262C69.4199 4.21023 69.2874 4.31462 69.1373 4.3891C68.9861 4.46258 68.8189 4.4991 68.6502 4.49553H66.2441V1.64403H68.5764C68.7448 1.64405 68.9111 1.68042 69.0635 1.75056C69.2241 1.82424 69.3689 1.92737 69.49 2.05439C69.615 2.18928 69.7145 2.34495 69.7839 2.5141C69.8554 2.68647 69.8922 2.87077 69.8924 3.05685C69.8935 3.24525 69.8612 3.43241 69.7971 3.60999C69.7341 3.78116 69.6427 3.94092 69.5266 4.08277L69.5265 4.08262Z" fill="#efefef"/>
<path d="M76.4153 0H74.6045V9.19331H76.4153V0Z" fill="#efefef"/>
<path d="M84.0189 9.19331L88.1012 0H86.1659L83.3358 6.53657L80.4978 0H78.5625L82.6448 9.19331H84.0189Z" fill="#efefef"/>
<path d="M91.3757 6.60668H94.7141L95.8551 9.19331H97.7984L93.7293 0H92.3817L88.2861 9.19331H90.2452L91.3757 6.60668ZM91.9687 5.04334L93.0488 2.58919L94.1131 5.04334H91.9687Z" fill="#efefef"/>
<path d="M98.1875 1.6439H101.325V9.19331H103.136V1.6439H106.273V0H98.1875V1.6439Z" fill="#efefef"/>
<path d="M115.579 7.54685H110.531V5.31348H114.835V3.70305H110.531V1.6439H115.468V0H108.72V9.19331H115.579L115.579 7.54685Z" fill="#efefef"/>
<path d="M61.5394 20.1328H56.454V12.5859H54.6455V21.7792H61.5394V20.1328Z" fill="#00EC00"/>
<path d="M70.5252 12.5859L66.4297 21.7792H68.3888L69.5167 19.1926H72.8577L73.9988 21.7792H75.9419L71.8729 12.5859H70.5252ZM70.1096 17.6292L71.1897 15.175L72.254 17.6292H70.1096Z" fill="#efefef"/>
<path d="M88.4482 21.0641C88.7172 20.8366 88.9368 20.5584 89.0941 20.246C89.2602 19.9158 89.3454 19.5521 89.3429 19.1838C89.3514 18.6047 89.1633 18.0392 88.8082 17.5763C88.636 17.3515 88.4266 17.1566 88.1887 16.9998C88.3317 16.8642 88.4579 16.7125 88.5646 16.5479C88.8344 16.1312 88.976 15.6471 88.9724 15.1535C88.9713 14.8386 88.913 14.5264 88.8003 14.2316C88.6898 13.933 88.5247 13.6567 88.3132 13.4162C88.0959 13.1709 87.8326 12.969 87.5375 12.8214C87.2129 12.6626 86.8545 12.5816 86.4918 12.5851H81.7793V21.7784H86.4072C86.7868 21.7804 87.1638 21.718 87.5218 21.594C87.8611 21.4746 88.1751 21.2949 88.4482 21.0641ZM86.4017 20.1448H83.5848V17.9347H86.489C86.6254 17.9335 86.7604 17.9628 86.8835 18.0204C87.014 18.0814 87.1316 18.166 87.2303 18.2697C87.3267 18.3715 87.4022 18.4905 87.4527 18.6203C87.5055 18.7554 87.5324 18.8989 87.5321 19.0436C87.5317 19.184 87.502 19.3227 87.4448 19.4513C87.3284 19.7221 87.1104 19.9388 86.8359 20.0565C86.6994 20.1165 86.5512 20.1467 86.4017 20.1448ZM87.0953 14.8495C87.1467 14.9886 87.1727 15.1354 87.1721 15.2833C87.1724 15.4219 87.1464 15.5592 87.0953 15.6884C87.045 15.814 86.9714 15.9294 86.8782 16.0287C86.7835 16.1271 86.6702 16.2065 86.5446 16.2624C86.4187 16.3204 86.281 16.3496 86.1419 16.3481H83.5844V14.2186H86.216C86.3431 14.2167 86.469 14.2434 86.5839 14.2965C86.7007 14.3511 86.8058 14.4268 86.8937 14.5199C86.9835 14.6148 87.0522 14.7271 87.0953 14.8495Z" fill="#efefef"/>
<path d="M102.652 20.1328H97.6035V17.8994H101.908V16.289H97.6035V14.2322H102.541V12.5859H95.7949V21.7792H102.652V20.1328Z" fill="#efefef"/>
<path d="M110.914 20.1328V12.5859H109.104V21.7792H116V20.1327L110.914 20.1328Z" fill="#efefef"/>
<path d="M60.9811 26.7149C60.7064 26.4266 60.3798 26.1906 60.0176 26.0189C59.6269 25.8354 59.1985 25.7421 58.7654 25.7462H54.6484V34.9395H56.4592V31.8881H58.8419C59.2711 31.8922 59.6956 31.8008 60.0835 31.6206C60.4405 31.4538 60.7607 31.22 61.026 30.9323C61.2899 30.647 61.4973 30.316 61.6376 29.9562C61.7826 29.5894 61.8562 29.1992 61.8547 28.8057C61.8532 28.4201 61.7731 28.0386 61.6191 27.6838C61.4654 27.327 61.2495 26.9991 60.9811 26.7149ZM56.454 27.3901H58.7255C58.8962 27.3892 59.0652 27.4247 59.2206 27.494C59.3795 27.5632 59.522 27.664 59.6392 27.7901C59.7642 27.925 59.8637 28.0807 59.933 28.2498C60.0055 28.4255 60.0424 28.6134 60.0415 28.8029C60.0429 28.9941 60.0097 29.184 59.9436 29.3639C59.8838 29.5329 59.7942 29.6902 59.6789 29.8287C59.5711 29.9555 59.4377 30.0589 59.2871 30.1326C59.1359 30.2061 58.9687 30.2426 58.8 30.2391H56.4544L56.454 27.3901Z" fill="#00EC00"/>
<path d="M72.5553 27.17C72.1486 26.7256 71.6578 26.3631 71.1101 26.1026C70.5217 25.8243 69.8757 25.683 69.2226 25.6897C68.5895 25.6851 67.9631 25.8173 67.3879 26.0766C66.8385 26.3248 66.3425 26.6739 65.9269 27.105C65.5148 27.5361 65.1872 28.0379 64.9605 28.5853C64.7274 29.1432 64.6077 29.7405 64.6084 30.3435C64.6116 31.5288 65.0614 32.6711 65.8712 33.5508C66.2805 33.9921 66.7755 34.3488 67.3273 34.5999C67.9102 34.8613 68.5434 34.9976 69.1843 34.9998C69.8253 35.0021 70.4594 34.8702 71.0443 34.6129C71.5913 34.3669 72.0848 34.0194 72.4974 33.5897C72.9068 33.1596 73.2325 32.6597 73.4584 32.1146C73.9204 31.0084 73.928 29.7697 73.4795 28.6581C73.2651 28.1116 72.952 27.6075 72.5553 27.17ZM69.2089 33.3404C68.8219 33.3462 68.4387 33.2644 68.089 33.1015C67.7526 32.9413 67.4519 32.7171 67.2045 32.4418C66.9529 32.1587 66.7556 31.8333 66.6221 31.4812C66.3485 30.7594 66.3467 29.9654 66.6168 29.2424C66.7457 28.8894 66.9385 28.5621 67.186 28.2763C67.4294 27.9955 67.7296 27.7674 68.0676 27.6063C68.4231 27.4377 68.8137 27.3524 69.2086 27.357C69.5921 27.3523 69.9716 27.4341 70.3179 27.5959C70.6529 27.7562 70.9532 27.9784 71.2024 28.2504C71.4558 28.5322 71.6549 28.8569 71.7901 29.2086C71.9308 29.571 72.0026 29.9557 72.0019 30.3435C72.0006 30.7184 71.9325 31.0901 71.8007 31.442C71.6708 31.7946 71.478 32.1217 71.2314 32.4081C70.9866 32.6906 70.6857 32.9213 70.3469 33.0859C69.9941 33.2597 69.6036 33.347 69.2089 33.3403V33.3404Z" fill="#efefef"/>
<path d="M83.2324 31.3663C83.5165 31.1879 83.7658 30.961 83.9684 30.6963C84.1701 30.4306 84.3274 30.1351 84.4343 29.8209C84.546 29.4936 84.6024 29.1506 84.6011 28.8055C84.5996 28.4223 84.5222 28.0431 84.3735 27.6888C84.0736 26.9563 83.505 26.3606 82.7797 26.0189C82.389 25.8354 81.9607 25.7421 81.5275 25.7462H77.334V34.9395H79.1448V31.8881H81.0271L83.1 34.9395H85.21L82.9119 31.5401C83.022 31.4883 83.129 31.4303 83.2324 31.3663ZM79.1447 27.3904H81.4771C81.6454 27.3904 81.8117 27.4267 81.9642 27.4968C82.1248 27.5705 82.2695 27.6736 82.3906 27.8006C82.5156 27.9355 82.6152 28.0912 82.6845 28.2603C82.756 28.4326 82.7929 28.6169 82.7931 28.803C82.7942 28.9914 82.7619 29.1786 82.6978 29.3562C82.6365 29.5271 82.5451 29.6862 82.4278 29.8262C82.3212 29.9538 82.1887 30.0582 82.0386 30.1326C81.8873 30.2062 81.7202 30.2427 81.5514 30.2392H79.1448V27.3904H79.1447Z" fill="#efefef"/>
<path d="M87.2324 27.391H90.3723V34.9404H92.1808V27.391H95.3207V25.7471H87.2324V27.391Z" fill="#efefef"/>
<path d="M100.547 25.7471L96.4512 34.9404H98.4103L99.5381 32.3538H102.877L104.018 34.9404H105.961L101.892 25.7471H100.547ZM100.131 30.7903L101.212 28.3362L102.276 30.7903H100.131Z" fill="#efefef"/>
<path d="M110.678 25.7471H108.867V34.9404H115.764V33.2939H110.678L110.678 25.7471Z" fill="#efefef"/>
</svg>
